<svg width="100" height="100" viewBox="0 0 100 100" fill="none" xmlns="http://www.w3.org/2000/svg">
<path d="M44 46H56V83H44V46Z" fill="#FFE46D"/>
<path d="M51.6287 97.8564C50.4555 99.0378 48.5445 99.0378 47.3713 97.8564L35.9588 86.3639C34.079 84.471 35.4198 81.25 38.0875 81.25H60.9125C63.5802 81.25 64.921 84.471 63.0412 86.3639L51.6287 97.8564Z" fill="#FFE46D"/>
<path d="M97 50C98.6569 50 100.009 48.6556 99.91 47.0018C99.4985 40.1503 97.6797 33.4455 94.5552 27.31C90.9761 20.282 85.7853 14.2003 79.4066 9.56178C73.028 4.92324 65.6425 1.85943 57.8535 0.620632C50.0645 -0.618168 42.093 0.00318055 34.59 2.43392C27.087 4.86466 20.2655 9.03584 14.6826 14.6067C9.09978 20.1776 4.91397 26.9902 2.46712 34.4879C0.0202756 41.9856 -0.618189 49.9558 0.603881 57.7475C1.67075 64.5496 4.12915 71.0471 7.81345 76.8383C8.70279 78.2363 10.5867 78.5321 11.9288 77.5605L49.2127 50.5699C49.7245 50.1995 50.3401 50 50.9719 50H97Z" fill="#FFE46D"/>
</svg>
