<svg width="266" height="100" viewBox="0 0 266 100" fill="none" xmlns="http://www.w3.org/2000/svg">
<path d="M44 46H56V83H44V46Z" fill="#FFE46D"/>
<path d="M51.6287 97.8564C50.4555 99.0378 48.5445 99.0378 47.3713 97.8564L35.9588 86.3639C34.079 84.471 35.4198 81.25 38.0875 81.25H60.9125C63.5802 81.25 64.921 84.471 63.0412 86.3639L51.6287 97.8564Z" fill="#FFE46D"/>
<path d="M97 50C98.6569 50 100.009 48.6556 99.91 47.0018C99.4985 40.1503 97.6797 33.4455 94.5552 27.31C90.9761 20.282 85.7853 14.2003 79.4066 9.56178C73.028 4.92324 65.6425 1.85943 57.8535 0.620632C50.0645 -0.618168 42.093 0.00318055 34.59 2.43392C27.087 4.86466 20.2655 9.03584 14.6826 14.6067C9.09978 20.1776 4.91397 26.9902 2.46712 34.4879C0.0202756 41.9856 -0.618189 49.9558 0.603881 57.7475C1.67075 64.5496 4.12915 71.0471 7.81345 76.8383C8.70279 78.2363 10.5867 78.5321 11.9288 77.5605L49.2127 50.5699C49.7245 50.1995 50.3401 50 50.9719 50H97Z" fill="#FFE46D"/>
<path d="M119.61 59.35L116.61 47.05C116.51 46.63 116.59 46.25 116.85 45.91C117.13 45.57 117.48 45.4 117.9 45.4H118.65C119.15 45.4 119.59 45.56 119.97 45.88C120.35 46.2 120.58 46.6 120.66 47.08L122.52 57.67C122.52 57.69 122.53 57.7 122.55 57.7C122.59 57.7 122.61 57.69 122.61 57.67L124.5 47.08C124.6 46.6 124.84 46.2 125.22 45.88C125.6 45.56 126.03 45.4 126.51 45.4H128.01C128.51 45.4 128.95 45.56 129.33 45.88C129.71 46.2 129.94 46.6 130.02 47.08L131.91 57.67C131.91 57.69 131.93 57.7 131.97 57.7C131.99 57.7 132 57.69 132 57.67L133.86 47.08C133.96 46.6 134.2 46.2 134.58 45.88C134.96 45.56 135.39 45.4 135.87 45.4H136.5C136.94 45.4 137.29 45.57 137.55 45.91C137.83 46.25 137.91 46.63 137.79 47.05L134.79 59.35C134.67 59.83 134.41 60.23 134.01 60.55C133.63 60.85 133.19 61 132.69 61H131.19C130.71 61 130.28 60.84 129.9 60.52C129.52 60.2 129.28 59.8 129.18 59.32L127.23 49.03C127.23 49.01 127.22 49 127.2 49C127.18 49 127.17 49.01 127.17 49.03L125.22 59.32C125.14 59.8 124.91 60.2 124.53 60.52C124.15 60.84 123.71 61 123.21 61H121.71C121.23 61 120.79 60.85 120.39 60.55C119.99 60.23 119.73 59.83 119.61 59.35ZM149.83 49.27C149.25 48.43 148.37 48.01 147.19 48.01C146.01 48.01 145.12 48.43 144.52 49.27C143.94 50.09 143.65 51.4 143.65 53.2C143.65 55 143.94 56.32 144.52 57.16C145.12 57.98 146.01 58.39 147.19 58.39C148.37 58.39 149.25 57.98 149.83 57.16C150.43 56.32 150.73 55 150.73 53.2C150.73 51.4 150.43 50.09 149.83 49.27ZM152.77 59.2C151.45 60.6 149.59 61.3 147.19 61.3C144.79 61.3 142.92 60.6 141.58 59.2C140.26 57.78 139.6 55.78 139.6 53.2C139.6 50.62 140.26 48.63 141.58 47.23C142.92 45.81 144.79 45.1 147.19 45.1C149.59 45.1 151.45 45.81 152.77 47.23C154.11 48.63 154.78 50.62 154.78 53.2C154.78 55.78 154.11 57.78 152.77 59.2ZM159.587 61C159.127 61 158.727 60.83 158.387 60.49C158.047 60.15 157.877 59.75 157.877 59.29V47.11C157.877 46.65 158.047 46.25 158.387 45.91C158.727 45.57 159.127 45.4 159.587 45.4H160.187C160.647 45.4 161.047 45.57 161.387 45.91C161.727 46.25 161.897 46.65 161.897 47.11V48.37C161.897 48.39 161.907 48.4 161.927 48.4C161.967 48.4 161.987 48.39 161.987 48.37C162.567 47.57 163.327 46.92 164.267 46.42C165.207 45.9 166.237 45.58 167.357 45.46C167.777 45.42 168.137 45.56 168.437 45.88C168.737 46.18 168.887 46.54 168.887 46.96C168.887 47.38 168.737 47.74 168.437 48.04C168.137 48.34 167.777 48.51 167.357 48.55C163.817 48.83 162.047 50.63 162.047 53.95V59.29C162.047 59.75 161.877 60.15 161.537 60.49C161.197 60.83 160.797 61 160.337 61H159.587ZM174.297 61C173.837 61 173.437 60.83 173.097 60.49C172.757 60.15 172.587 59.75 172.587 59.29V40.21C172.587 39.75 172.757 39.35 173.097 39.01C173.437 38.67 173.837 38.5 174.297 38.5H174.897C175.357 38.5 175.757 38.67 176.097 39.01C176.437 39.35 176.607 39.75 176.607 40.21V51.76C176.607 51.78 176.617 51.79 176.637 51.79H176.667L181.227 46.66C181.967 45.82 182.907 45.4 184.047 45.4H185.307C185.627 45.4 185.847 45.55 185.967 45.85C186.107 46.15 186.067 46.42 185.847 46.66L180.357 52.72C180.257 52.84 180.257 52.97 180.357 53.11L185.907 59.71C186.127 59.97 186.157 60.25 185.997 60.55C185.857 60.85 185.627 61 185.307 61H184.047C182.907 61 181.977 60.56 181.257 59.68L176.667 54.13C176.667 54.11 176.657 54.1 176.637 54.1C176.617 54.1 176.607 54.11 176.607 54.13V59.29C176.607 59.75 176.437 60.15 176.097 60.49C175.757 60.83 175.357 61 174.897 61H174.297ZM194.65 48.1C192.35 48.1 191.2 49.8 191.2 53.2C191.2 54.9 191.51 56.18 192.13 57.04C192.75 57.88 193.59 58.3 194.65 58.3C195.59 58.3 196.4 57.99 197.08 57.37C197.76 56.75 198.1 56.04 198.1 55.24V51.16C198.1 50.36 197.76 49.65 197.08 49.03C196.4 48.41 195.59 48.1 194.65 48.1ZM193.45 61.3C191.67 61.3 190.19 60.58 189.01 59.14C187.83 57.68 187.24 55.7 187.24 53.2C187.24 50.62 187.8 48.63 188.92 47.23C190.06 45.81 191.57 45.1 193.45 45.1C195.15 45.1 196.65 45.72 197.95 46.96C197.97 46.98 197.99 46.99 198.01 46.99C198.03 46.99 198.04 46.98 198.04 46.96V40.21C198.04 39.75 198.21 39.35 198.55 39.01C198.89 38.67 199.29 38.5 199.75 38.5H200.35C200.81 38.5 201.21 38.67 201.55 39.01C201.89 39.35 202.06 39.75 202.06 40.21V59.29C202.06 59.75 201.89 60.15 201.55 60.49C201.21 60.83 200.81 61 200.35 61H200.02C199.54 61 199.13 60.84 198.79 60.52C198.47 60.18 198.3 59.77 198.28 59.29L198.25 59.08C198.25 59.06 198.24 59.05 198.22 59.05C198.2 59.05 198.18 59.06 198.16 59.08C196.84 60.56 195.27 61.3 193.45 61.3ZM215.543 49.27C214.963 48.43 214.083 48.01 212.903 48.01C211.723 48.01 210.833 48.43 210.233 49.27C209.653 50.09 209.363 51.4 209.363 53.2C209.363 55 209.653 56.32 210.233 57.16C210.833 57.98 211.723 58.39 212.903 58.39C214.083 58.39 214.963 57.98 215.543 57.16C216.143 56.32 216.443 55 216.443 53.2C216.443 51.4 216.143 50.09 215.543 49.27ZM218.483 59.2C217.163 60.6 215.303 61.3 212.903 61.3C210.503 61.3 208.633 60.6 207.293 59.2C205.973 57.78 205.313 55.78 205.313 53.2C205.313 50.62 205.973 48.63 207.293 47.23C208.633 45.81 210.503 45.1 212.903 45.1C215.303 45.1 217.163 45.81 218.483 47.23C219.823 48.63 220.493 50.62 220.493 53.2C220.493 55.78 219.823 57.78 218.483 59.2ZM225.577 59.35L222.577 47.05C222.477 46.63 222.557 46.25 222.817 45.91C223.097 45.57 223.447 45.4 223.867 45.4H224.617C225.117 45.4 225.557 45.56 225.937 45.88C226.317 46.2 226.547 46.6 226.627 47.08L228.487 57.67C228.487 57.69 228.497 57.7 228.517 57.7C228.557 57.7 228.577 57.69 228.577 57.67L230.467 47.08C230.567 46.6 230.807 46.2 231.187 45.88C231.567 45.56 231.997 45.4 232.477 45.4H233.977C234.477 45.4 234.917 45.56 235.297 45.88C235.677 46.2 235.907 46.6 235.987 47.08L237.877 57.67C237.877 57.69 237.897 57.7 237.937 57.7C237.957 57.7 237.967 57.69 237.967 57.67L239.827 47.08C239.927 46.6 240.167 46.2 240.547 45.88C240.927 45.56 241.357 45.4 241.837 45.4H242.467C242.907 45.4 243.257 45.57 243.517 45.91C243.797 46.25 243.877 46.63 243.757 47.05L240.757 59.35C240.637 59.83 240.377 60.23 239.977 60.55C239.597 60.85 239.157 61 238.657 61H237.157C236.677 61 236.247 60.84 235.867 60.52C235.487 60.2 235.247 59.8 235.147 59.32L233.197 49.03C233.197 49.01 233.187 49 233.167 49C233.147 49 233.137 49.01 233.137 49.03L231.187 59.32C231.107 59.8 230.877 60.2 230.497 60.52C230.117 60.84 229.677 61 229.177 61H227.677C227.197 61 226.757 60.85 226.357 60.55C225.957 60.23 225.697 59.83 225.577 59.35ZM248.62 61C248.16 61 247.76 60.83 247.42 60.49C247.08 60.15 246.91 59.75 246.91 59.29V47.11C246.91 46.65 247.08 46.25 247.42 45.91C247.76 45.57 248.16 45.4 248.62 45.4H249.01C249.49 45.4 249.89 45.57 250.21 45.91C250.55 46.23 250.73 46.63 250.75 47.11V47.32C250.75 47.34 250.76 47.35 250.78 47.35C250.8 47.35 250.82 47.34 250.84 47.32C252.2 45.84 253.79 45.1 255.61 45.1C257.43 45.1 258.75 45.62 259.57 46.66C260.41 47.68 260.83 49.39 260.83 51.79V59.29C260.83 59.75 260.66 60.15 260.32 60.49C259.98 60.83 259.58 61 259.12 61H258.61C258.15 61 257.75 60.83 257.41 60.49C257.09 60.15 256.93 59.75 256.93 59.29V52.09C256.93 50.59 256.73 49.57 256.33 49.03C255.95 48.47 255.26 48.19 254.26 48.19C253.44 48.19 252.68 48.54 251.98 49.24C251.28 49.94 250.93 50.69 250.93 51.49V59.29C250.93 59.75 250.76 60.15 250.42 60.49C250.08 60.83 249.68 61 249.22 61H248.62Z" fill="#FFE46D"/>
<path d="M259.71 61.425C259.318 61.8188 258.682 61.8188 258.29 61.425L254.631 57.7395C254.004 57.1085 254.451 56.0349 255.34 56.0349H262.66C263.549 56.0349 263.996 57.1085 263.369 57.7395L259.71 61.425Z" fill="#FFE46D"/>
</svg>
